# xmcd
#
# Track frame offsets:
#	150
#	20205
#	39665
#	56977
#	75022
#	92625
#	107962
#	123493
#	139142
#	157334
#
# Disc length: 2263 seconds
# Revision: 0
# Processed by: cddbd v1.5.2PL0 Copyright (c) Steve Scherf et al.
# Submitted via: dBpowerAMP V12.0
#
DISCID=8a08d50a
DTITLE=Swanee - One Day At A Time
DYEAR=2014
DGENRE=Blues 
TTITLE0=Fallen Angel
TTITLE1=Summertime
TTITLE2=Heart Run Dry
TTITLE3=Rescue Me
TTITLE4=Close The Door
TTITLE5=Sweet Marie
TTITLE6=Simple Man
TTITLE7=No-One Takes Me Serious
TTITLE8=Say Goodnight
TTITLE9=Here's To You
EXTD=
EXTT0=
EXTT1=
EXTT2=
EXTT3=
EXTT4=
EXTT5=
EXTT6=
EXTT7=
EXTT8=
EXTT9=
PLAYORDER=
